<svg xmlns="http://www.w3.org/2000/svg" width="80" height="80" viewBox="0 0 400 400"><g fill-rule="evenodd"><path fill="#070c0d" d="M197.6.4c0 .2-.2.3-.3.2-.4-.1-1.6.6-1.6 1 0 .2-.7.6-1.3.6l-.5.5c0 .3-.3.5-.4.5-.3-.1-1.1.6-1 .8.2.1-.1.4-.5.6-.4.2-.7.5-.7.7 0 .2-.2.3-.3.3-.1 0-.2.1-.1.3.1.4-.4 1-.6.7-.1 0-.2 0-.2.4l-.2.5c-.2 0-1 2.2-1 3l-.4 1c-.6 1.3-.4 5.8.2 7.2.3.7.5 1.4.4 1.6 0 .2 0 .5.2.5.2.1.3.3.2.5v.3c.3-.2.5 0 .4.6 0 0 0 .2.2.2.1 0 .2.1 0 .3 0 .2 0 .4.3.3.1 0 .3.1.3.3v.6c0 .2.3.4.6.4.2.1.5.5.6 1 0 .4.2.8.3.7.7-.2 1.6 1.1 1.6 2.5 0 .7.1 1.3.3 1.3.1 0 .2 2 .2 5.6 0 3.9 0 5.6-.3 5.6-.1 0-.2.6-.1 1.7v1.8h-.6a9 9 0 0 1-1.5.2c-.4 0-.8.1-.8.3 0 .1-.2.2-.4 0-.3 0-.5 0-.6.3 0 .2-.2.3-.4.2-.3-.2-1.8.4-1.8.7 0 .2 0 .3-.2.2-.2 0-.3 0-.3.2 0 .1 0 .2-.2.1-.4-.2-1.8.6-2 1.2-.2.3-.5.6-.8.6-.3 0-.6.1-.7.4 0 .2-.3.5-.5.6-.2 0-.5.3-.5.6s-.2.6-.3.5c-.2 0-1.1 1.2-1.2 1.6 0 1.2-.2 1.2-3 1a196.7 196.7 0 0 0-27 .7 16.8 16.8 0 0 0-6 1c-.6-.2-1.8 0-1.7.4h-.5c-.5 0-.8 0-1 .3a3 3 0 0 1-1.4.3c-.5 0-1 .1-.9.2.2.3-1.6.7-2.6.7-.4 0-.8.2-1 .3a3 3 0 0 1-1.5.6c-1.3.3-4 1.5-3.4 1.5.7 0 0 .3-.8.4-1 .1-2 .7-1.8 1 .1.2 0 .2-.2.1-.4-.1-1.6.3-1.6.6l-.8.6c-.5.2-1.1.6-1.4.9-.2.3-.6.6-1 .6-.3 0-.5 0-.5.5 0 .3 0 .4-.4.3-.2 0-.7.2-1.3.8l-1 1c-.6.2-1 .5-1 .8 0 .1-.2.3-.5.3s-.5.1-.5.5c0 .2 0 .4-.1.3-.1 0-.5.2-.8.6-.3.4-.7.6-.9.5-.2 0-.3 0-.2.1.1.2 0 .4-.2.6-.2.2-.3.2-.3 0s-.1-.1-.2.2c-.1.3-.4.7-.8.9-.3.1-.5.3-.5.4 0 .4-.4.8-.8.8s-1.1.9-1 1.2c0 .1-.1.2-.3.2-.4 0-1.1.7-1 1l-.2.1c-.2 0-.4.3-.5.5 0 .3-.2.4-.3.4-.2-.1-1.3 1.2-1.2 1.5l-.5.3c-.2 0-.4.3-.4.6s-.2.5-.5.5c-.2 0-.4 0-.3.2l-.1.4c-.2 0-.2.2-.1.3l-.1.2c-.7 0-2 2-1.8 2.4 0 .1 0 .2-.4.2-.3 0-.4.2-.4.6 0 .4-.2.7-.5.7-.5.2-1.1 1.3-1 1.7 0 .2 0 .3-.1.2-.2-.1-.2 0-.2.2.1.2 0 .3-.1.3-.4 0-1 .9-.8 1.2l-.1.2c-.1 0-.3.2-.3.5 0 .2-.1.5-.3.5-.2.1-.4.4-.4.7 0 .6-.6 1.9-.7 1.4a37.6 37.6 0 0 1-1.5 3c-.4.9-.7 1.9-.7 2.2l-.1.6c-.1 0-.1.2 0 .4 0 .2 0 .3-.2.2-.3-.2-.5.4-.5 1.3 0 .8-.6 3.1-.7 2.5 0-.7-.5.4-.6 1.5-.1 2.3-.8 3.2-1.5 2-.4-.7-2.2-1.5-4-1.8l-.7-.3c0-.2-.5-.3-.8-.3l-.8-.2c0-.1 0-.2-.2 0-.1 0-.4 0-.6-.2a1 1 0 0 0-.8-.1l-.5-.1c0-.2-1.3-.3-4.2-.2-2.4 0-4 0-3.7.2.6.1-2 .6-2.8.5-.1 0-.4 0-.5.2 0 .1-.4.3-.7.3l-.6.1c0 .3-1.2.6-1.7.5l-.6.3c-.1.3-.4.4-.5.4-.4-.2-2 .5-1.6.7.2.2.2.2 0 .3h-.5l-.7.1c-.3 0-.5.2-.5.5s-.1.5-.2.5h-.6l-.5.7c-.2.4-.5.7-.8.8-.2 0-.5.4-.6.7 0 .3-.3.6-.4.6-.2 0-.4.2-.5.5 0 .2-.3.6-.5.8-.4.3-.5.7-.5 1.6l-.4.7c-.4.4-1 2-1.2 3l-.3 1-.2 1.1c0 .4-.1.7-.3.8-.2.2-.2.4-.1.7v.4c-.2 0-.3.5-.3 1.5 0 .9-.2 2-.3 2.3-.1.5-.2.9-.1 1 0 0 0 .2-.2.3A130.6 130.6 0 0 0 60 149l.3 1c0 .5.2 1 .5 1.3.2.2.4.7.4 1 0 .2.2.4.3.4l.4.2v.8c0 .6.8 1.5 1.2 1.5.1 0 .3.3.3.6 0 .4.2.6.6.7.3 0 .5.2.5.4s.2.4.4.4.3.1.3.3v.2c.2-.1.4 0 .6.2.2.2.2.3.1.3 0 0 0 .2.3.5l.8.4c.3 0 .5.2.6.4 0 .2.5.5 1 .6.6.1 1 .3.8.4-.2.2 1.8 1.2 2.1 1.1l.4.1c0 .2 0 .2.2.2s.6 0 .9.2c.3.2.6.3.8.2a30.7 30.7 0 0 0 12.2.2c.2-.2.4-.3.6-.2.3.2 3.4-.4 3.3-.6-.1-.2 0-.2.4-.1.3.1.4 0 .3-.1-.1-.2 0-.3.2-.2h.4c0-.2.6-.3 1-.4h1v.7c0 .5.2.8.3.7.2 0 .2.6.1 2l.1 4.4c.4 3.7.4 3.8 0 4.2a5 5 0 0 0-.4 1.9c0 .7-.3 1.5-.4 1.6-.4.2-.9 1.5-.6 1.6.2 0 .2.2.1.3l-.2.7c0 .9-.4 2-.6 2.2-.1.2-.2.4 0 .5l-.3.7c-.2.2-.3.7-.3 1 0 .4-.2.7-.3.8l-.2 1v1c-.2 0-.2.3-.2.8v1c-.2 0-.3.4-.3.8.1 1.4 0 2-.2 1.6-.2-.3-.2.2-.2 1.5a96.6 96.6 0 0 0 2 39c.2 0 .5.8.6 1.5.2 1.1.5 2 .8 2.2.1 0 .3.3.3.6 0 .7.3 1.5.5 1.4l.3.8c0 .5.3 1 .4 1l.2.7c0 .2 0 .4.2.4l.7 1.3c.3.7.7 1.3 1 1.4.3 0 .4.3.4.7l.3.9c.2.1.5.6.7 1 .2.4.6.9.9 1 .2.3.4.5.3.6-.1 0 .2.5.7 1 .5.3.8.9.8 1 0 .3.1.4.2.3.2 0 .4 0 .5.3.2.1.3.3.2.3-.4 0 .4 1 1 1.2.3.2.6.4.6.6 0 .5.6 1.2 1 1 .1 0 .3 0 .3.3 0 .2 0 .4.3.4.2 0 .1 0 0 .2-.4.2-.3.3.2.3s.6 0 .6.4c0 .3.2.5.5.5l.7.3c.2.2.2.4 0 .4l1 1c.5.4 1 .8 1.1.7l.2.1c0 .2.2.3.4.3s.4.2.5.4c.2.4 1 1.1 1.4 1.1 0 0 .5.3.8.7.4.3.8.6 1 .6l.5.4c.2.3.5.5.8.6.3 0 .5.2.5.4s0 .2.3.1c.2 0 .3 0 .3.2s.2.4.3.4h.4c.2 0 .5.3.7.5l.9.4c.2 0 .3.1.2.2 0 .1.2.3.6.4.4 0 .7.2.7.5s.2.5.7.5c.5 0 1 .2 1 .4.2.3.4.3.4.2l.3.3c.3.4.5.5.9.4.3 0 .4 0 .3.1 0 .2.1.4.5.5l1 .6.7.3c.6 0 1.6.3 1.6.6 0 .2.4.4.8.5.5 0 .9.2.9.4 0 .1.1.2.3 0 .2 0 .4 0 .4.2 0 .1.2.2.5.2.4 0 .8.2 1.1.5.3.3.7.4 1 .4.1 0 .4 0 .6.3.2.3 2.7 1 3.1 1 .1 0 .4 0 .6.2.2.3.7.4 1.4.4.5 0 1 0 .9.2-.2.3.6.6 1.1.4.3-.2.4-.1.3 0-.2.3.5.5 1.5.3.3 0 .4.1.4.3 0 .2.3.2.6.1.5-.1.6 0 .5.1-.1.2 0 .3.4.1.5 0 .6 0 .5.2-.1.2 0 .2.8.1h1c0 .2.3.3.7.2l2 .4 3 .5c.9 0 1.7.3 1.8.4 0 .2.3.2.5.1l.5.1.9.2c.8 0 5.8 1.1 5.2 1.2-.2 0-.2 0 0 .2.3.2.7.2 1 0 .7-.2 4.9.7 4.9 1 0 .2-.4.2-1 .1h-1.2c-.7.4 1.6.4 2.6 0h1.1c.8.5-2.2.8-4 .6-1-.1-1.9-.2-2-.1-.1 0-1 0-1.9-.2a111.9 111.9 0 0 0-11.4-.9l-3-.3c-2.4 0-3.3 0-3.5-.2-.1-.2-4-.7-6-.7-.8 0-1.4 0-1.4-.2 0 0-.3-.2-.7-.2a32.9 32.9 0 0 1-8.1-.8c-.2-.1-1.6-.3-3.2-.3-1.6-.1-3-.3-3-.4 0-.1-.3-.2-.7 0-.5 0-.8 0-.9-.2 0-.1-.7-.3-1.5-.3s-1.5-.1-1.5-.2-.4-.2-.9-.2c-1.6.1-2.5 0-2.2-.2.2 0-.7-.3-2.1-.4-1.4-.2-2.6-.3-2.7-.2l-.2-.1c0-.2-.3-.2-1-.1-.9 0-1.1 0-1.2-.2-.1-.3-.6-.4-2-.4-1.2 0-1.9 0-1.8-.2.1-.2-.1-.3-.5-.3l-2.2-.3c-.7-.2-2.1-.4-3-.4-.9 0-1.6-.1-1.6-.2 0-.3-2.7-.8-4.2-.8-.7 0-1.4 0-1.4-.2l-1-.2c-.5 0-.9-.1-.9-.2 0-.2-.4-.2-.8-.2-1.5 0-2 0-1.8-.3 0-.2 0-.2-.5-.1H82c0-.2-.6-.3-1.3-.3h-1.4v39c.1 36.7 0 39-.3 39.2-.5.2-.7.5-.7 1.2 0 .4 0 .5-.2.3s-.3-.1-.5.4c-.3.8 0 5 .3 5v.2l.1.4c.1 0 .3.5.3 1 0 .6.2.9.5.9.4 0 .8.4.9.8 0 .1 0 .2.2.2.1 0 .5.3.8.7.4.4.6.5.6.3l.2.2c.3.7 1.3 1 2 .9.5-.1.6 0 .5.1-.1.2 0 .3.6.1.5 0 .8 0 1 .2 0 .2.1.2.1 0 0-.1.4-.2 1-.1.8 0 .9 0 .5-.1-.4-.3.4-.5 1.2-.3.4 0 1-.3 1-.6s.6-.6 1.4-.6c.4 0 .8-.1.8-.3.1-.2.4-.4.8-.4.3 0 .6-.1.8-.4.2-.3.5-.4 2-.3 1 0 1.7 0 1.7-.2h.9c.7 0 1 0 1.5-.6.4-.3.8-.6 1-.6.2 0 .3 0 .3-.2 0-.1.2-.2.3 0 .2 0 .4 0 .6-.3.2-.4 2-.1 2 .3 0 .5 2.6.3 3-.2.5-.5.6-.5 3.2-.5 1 0 1.7 0 1.7-.2s0-.2.2-.1c.1 0 .2 0 .2-.2l.3-.2c.2 0 .5 0 .8-.2.2-.1.9-.2 1.4-.1 2 .2 3.1.2 3.3 0h.7l1-.1a13 13 0 0 1 3.8-.5l3.7-.5c0-.2.8-.3 1.9-.2 1.2 0 1.8 0 1.8-.3 0-.1.3-.2.7-.2a5.2 5.2 0 0 0 1.5 0c.2-.1.5-.3.6-.6.3-.4.6-.4 1.7-.3 4 .3 8.3-.1 7.9-.8-.1-.1 0-.2.2 0 .2 0 .4 0 .4-.2 0-.3 1.6-.2 1.8.1 0 .3.6.4 2.5.3 1.4 0 2.3 0 2.2-.2-.2 0 0-.2.4-.2 1.5 0 2.1-.1 2.5-.4.3-.1 1 0 2 .2s1.5.2 1.6 0l2.1-.3c1.1 0 2.3-.2 2.7-.3 1.2-.2 2.7-.2 2.7 0s3.3.2 3.8 0c.2 0 .3-.2.3-.3-.2-.3-.1-.3 1.8-.4.8 0 1.3 0 1.2.2-.1.2.1.2.6.1l2.2-.2 1.4-.2h3.5a2192.9 2192.9 0 0 1 8.5-.2l1.4-.1 1.4.1h2.3a62.9 62.9 0 0 1 5-.3c.8.5 5.4.3 6-.2.4-.5 1.8-.7 1.7-.3 0 .3 0 .3.4.2h.3c-.2.4-.5.4 6 .5a124.5 124.5 0 0 1 8.1 0h.5l1.7.1c.6 0 1 .1 1 .2 0 .2.2.2.4.2.4 0 1.4 1 1.2 1.3l.3.1c.3 0 .5.2.5.4 0 .3.1.3.4.3h.3c0 .2.3.3.6.3 1.3 0 2.5.3 2.2.5-.2 0 .1.2.9.2.7 0 1.2-.1 1.2-.3h.7c.4 0 .7 0 .7-.2l.8-.2c.9 0 2.5-.7 3.4-1.5.5-.5 3.7-.8 3.7-.3a282.1 282.1 0 0 1 9.3.1h.3l.9.2 1.8.3c1.8.3 3.6.3 4.3-.1.6-.3.8-.3 1.7.2l1.5.5c.3 0 .6.2.7.3.1.2.5.2 1.4 0h1.5c.2 0 .4 0 .5-.2 0-.1.3-.1.5.1.4.4 1.8.5 5.4.4 1.2 0 1.8 0 2 .3.5.5 2.6.9 5 1l1.9.1h1.5c1.7-.1 3.4.1 3 .5-.3.1-.3.2.2.2.6 0 1.9.7 1.8 1 0 .2.2.4.4.5.3.1.4.4.4.5 0 .2 0 .3.2.3s.4 0 .4.2l1.7.7c2.6.8 8.8.5 8.2-.4-.1-.2.6-.6 1-.5.2 0 .3-.1.3-.3 0-.3.2-.4 1-.4l.9.2c0 .2.3.2.9.1.7 0 1 0 1 .2 0 .4 2 .8 2.2.4 0-.2 1.4 0 1.4.3s2 .7 2.7.5c.8-.4 1.3-.4.9 0-.4.1.2.4 1.2.4 1.1 0 2.7.3 2.7.5s.3.2.8.1l1 .1 1.6.3c1 0 1.4.1 1.3.3 0 .2.3.3 1 .3.5 0 .9.2 1 .4 0 .2.2.2.4.2.2-.1.4 0 .4.2 0 .6 1.4.8 4 .8 2 0 3.4-.4 3.4-.9 0 0 .2-.1.4 0 .2 0 .3 0 .3-.3 0-.2.2-.4.5-.4s.5-.2.6-.6c0-.3.5-.8 1-1.1.4-.4.7-1 .8-1.4l.4-2c0-.1 0-.2.2-.1h.2c0-.2 0-.4-.3-.4-.2-.1-.2-.2 0-.4.4-.4.4-1.4 0-1.5l-.3-1.4c0-.7-.2-1.3-.4-1.2-.7 0-.7-1.7-.7-40.3v-39h-1.3c-.9 0-1.4 0-1.4.2s-.2.2-.6 0c-.4 0-.6 0-.5.2.2.2-.1.3-.8.3-.5 0-1.4.1-2 .3-.5.2-1.1.3-1.3.2-.2 0-.4 0-.4.2s-.2.2-1 .1l-.8.1c0 .2-.3.2-.6.2h-.6l-1.2.2c-.7 0-1.3.2-1.3.3 0 .1-.4.2-.8 0-.4 0-1 0-1.3.2a7 7 0 0 1-1.9.4c-2 .1-3.5.4-3.4.6 0 .1-.6.2-1.5.2-1 0-2 .1-2.2.3l-1.5.3c-1.9 0-6.1.6-5.8.8.3.2-.6.3-2.2.2-.5 0-1 0-1 .2 0 0-.5.2-1.3.2s-1.5.2-1.6.3c-.1.2-.4.2-.8.1l-.8.1c-.1.2-1.4.3-3 .4a17 17 0 0 0-4 .4c-.3 0-.5 0-.5.2 0 .1-.9.2-2.4.2a10 10 0 0 0-3.1.3c-.4.1-1.5.3-2.4.3-2.9.2-7 .6-7 .8 0 .2-.4.2-3.8.2-1 0-1.8.1-1.8.3l-1 .2c-3 0-5.8.2-8.7.5a64.7 64.7 0 0 1-8.1.5l-1-.2 1-.2c.6 0 1-.3 1-.4 0-.1-.2-.2-.4 0-.8.3-2 .5-2.7.5h-.7l.8-.2a6 6 0 0 1 1.2-.3c.3 0 .7 0 .9-.2a113 113 0 0 1 12-2.5c.2-.2.5-.2 1-.1l1-.1c.1-.2.5-.2.9-.2.5.1.8 0 1-.2a1 1 0 0 1 1-.3h.9c.3-.3 1.2-.4 1.6-.3.5.2 2-.3 1.9-.5 0-.1 0-.2.3-.2l.9-.1 1.4-.2c.5 0 1.5-.4 2.1-.6.7-.3 1.5-.5 1.8-.5.3 0 .8-.2 1-.4l.6-.4c.2.2 1.3-.2 1.3-.5 0-.2.3-.3.8-.3s1-.2 1.1-.3a3 3 0 0 1 2-.9c.7 0 1.9-.6 1.4-.8l.4-.1c.3 0 .6-.1.7-.3 0-.1.3-.3.5-.3 1-.1 2.5-.9 2.2-1-.2-.2-.2-.3.2-.3.3 0 .5 0 .5-.2s.3-.3.5-.3c.6 0 1.9-.7 1.9-1 0-.1.2-.3.6-.4.4 0 1-.3 1.4-.6a3 3 0 0 1 1-.5c.2 0 1.3-1 1-1l.8-.4c.5-.3 1-.6 1-.8-.1-.1 0-.3.4-.3.3 0 .5-.2.5-.3 0-.2 0-.2.2-.2.2.2 1-.4 1-.7l.3-.1.1-.3c0-.2.2-.3.5-.3s.5-.2.5-.3c0-.1 0-.2.2-.1l1-.6a274.2 274.2 0 0 1 2.5-2.5c0-.2.3-.4.7-.3.1 0 .3-.2.3-.4.1-.3.3-.4.5-.3.2 0 .4 0 .4-.4 0-.3 0-.5.2-.4.1 0 .2 0 .2-.2 0-.3.9-1 1-.9h.2c0-.4 1-1.5 1-1.2l.1-.2c.1-.3.3-.5.5-.5.4 0 1.4-1.3 1.1-1.4-.2 0-.2 0 0-.1.2 0 .3-.1.2-.3 0 0 0-.2.2-.2s.5-.2.7-.5c.2-.5.3-.7.3-1.1 0-.2.2-.2.4-.2l.4-.6c0-.4.2-.7.4-.7l.7-1 1-1.4.4-.8.3-.2c.1 0 .2-.2.1-.4-.1-.4.3-1.5.6-1.5.1 0 .2 0 .2-.2 0-.4 0-.7.3-.7.2 0 .3-.1.3-.4l.1-.5.3-.8.5-1c.2-.1.5-.7.5-1.2.1-.6.3-1 .4-.9 0 0 .1 0 0-.2 0-.2.1-.7.4-1.2.2-.5.5-1.2.5-1.6 0-.3 0-.6.2-.6l.2-.8c0-.5.1-.8.2-.7.2 0 .3 0 .4-.3a47.6 47.6 0 0 0 1-5.7c.3 0 .6-2 .6-3.7 0-.8.2-1.7.3-1.8.3-.6.4-1.3 0-1-.1 0-.2 0 0-.3a73.1 73.1 0 0 0 0-17.4l.3-1c0-.5 0-.8-.3-.8-.2 0-.3-.5-.2-2l-.1-1.8c-.2 0-.3-.8-.4-2-.1-1.2-.3-1.9-.4-1.8-.2.1-.2 0-.1-.6 0-.4 0-.7-.1-.6-.2.2-.4-1-.3-2 .1-.9-.2-2.2-.4-1.9-.2.4-.5-.8-.5-2.2 0-.6-.1-1.4-.3-1.8l-.5-1.6c0-.5-.2-1-.3-1-.2 0-.2-.2-.1-.3 0-.2 0-.4-.2-.6-.1-.2-.2-.5-.1-.7 0-.1 0-.4-.2-.5-.2-.3-.3-.9-.4-1.7a3 3 0 0 0-.3-.9v-5.2a47.3 47.3 0 0 0 .3-6.2c.1.1.3 0 .3-.1.2-.4 1.1-.7 1.1-.4 0 .1.1.2.3 0 .1 0 .3 0 .4.2.1.2.6.3 1 .3.5 0 .8.1.8.2-.2.2 1.2.5 1.4.3.1 0 .3 0 .5.2.3.2 1.4.4 3.6.4.7 0 .9 0 .5.2-1 .4 4.1.7 6.2.3.6-.1.8-.2.6-.3l1.2-.3a9 9 0 0 1 2.2-.2c.5.1.7 0 .7-.2 0-.3.2-.4.6-.4.4 0 1.1-.3 1.7-.7.5-.4 1.1-.6 1.3-.6.4.2 1-.3.9-.6 0-.1 0-.2.3-.2.5 0 1-.6.8-.8l.5-.3c.3 0 .6-.3.6-.5l.3-.3c.2 0 .4-.1.5-.3 0-.2.2-.4.4-.3l.8-.6c.3-.5.7-1 1-1.2.2-.2.3-.5.2-.6l.6-1c.3-.3.7-.9.7-1.1 0-.3 0-.5.1-.4.5 0 .7-.1.7-.7 0-.3.2-.8.4-1 .3-.4.6-2.6.7-5.2 0-.7.2-1.7.4-2.2.2-.5.2-1.6.2-2.9v-2.2a94.1 94.1 0 0 0-.3-15.7 7 7 0 0 0-.6-3c-.1 0-.2-.7-.2-1.5 0-1 0-1.4-.3-1.6-.2-.1-.3-.4-.3-.8l-.1-.5c-.1 0-.2-.3-.1-.6 0-.4 0-.4-.1-.2-.2.3-.3.2-.4-.3-.6-2.7-1.2-4.5-1.7-4.4l-.3-.1v-.4l-.5-.6c-.2-.2-.4-.6-.3-.7 0-.1 0-.2-.3-.2-.2 0-.3-.1-.2-.3 0-.3 0-.3-.2-.3-.2.1-.4 0-.4-.1 0-.5-1.3-1.9-1.9-2-.6-.1-.9-.3-.9-.7 0-.2-.2-.3-.4-.3-.3 0-.5-.1-.5-.2-.2-.4-2.8-1.5-3.3-1.3-.3 0-.4 0-.4-.3 0-.2-.3-.3-.8-.3l-1-.2-1-.2a2 2 0 0 1-1-.3c0-.2-.5-.2-1-.1-.7 0-.8 0-.6-.1.3-.2-.2-.3-1.9-.2h-1.1c.7-.2.4-.2-.8-.1h-2.9l-1 .2c0 .2-.3.2-1 .1-.7 0-.8 0-.8.2 0 .3-.2.4-.5.3-.2 0-.8 0-1.2.2l-1.2.4-.7.4-.7.2c-.2 0-.4 0-.5.2 0 .2-.2.3-.4.3h-.6c-.3.2-.3.3 0 .3.7 0-.3.4-1.3.4s-1 0-1.1-.3c0-1.6-.3-3.3-.6-3.5l-.2-.8c.1-.4 0-.5 0-.4-.3.2-.4 0-.4-.6 0-.5 0-.9-.2-.9v-.3c0-.2 0-.5-.2-.6-.2 0-.3-.5-.4-1 0-.3-.2-.8-.4-1a4 4 0 0 1-.7-1.6c0-.7-.3-1.3-.5-1.4-.2-.2-.3-.3-.2-.4 0 0 0-.4-.3-.8s-.4-.8-.4-1c0-.1 0-.2-.2-.2-.4 0-.9-.8-1-1.5a1 1 0 0 0-.4-.7c-.2 0-.2-.2 0-.2l-.2-.2a.9.9 0 0 1-.5-.7c0-.2-.1-.5-.3-.6-.2 0-.4-.3-.4-.5 0-.3-.2-.8-.6-1.1l-.6-.9-.1-.2c-.1 0-.2 0-.2-.3 0-.4-.8-1.5-1-1.4-.2 0-.3-.1-.5-.5a4 4 0 0 0-.7-1l-.4-.8h-.3c-.2 0-.2 0-.1-.2 0-.3 0-.4-.3-.4s-.5-.2-.5-.4c0-.5-.5-1.3-.9-1.3-.1 0-.4-.2-.5-.5-.4-.7-1.2-1.5-1.6-1.5-.1 0-.4-.2-.4-.5a12 12 0 0 0-3.5-3.3l-.3-.1c.3-.2-.7-1.3-1.1-1.3-.2 0-.4-.2-.6-.6 0-.3-.3-.5-.4-.5-.1 0-.4-.2-2.4-2l-1-.7c-.2 0-.5-.3-.9-.7-.3-.3-.7-.6-.9-.5 0 0-.3-.1-.5-.4-.1-.4-.4-.6-.8-.6-.3 0-.7-.3-1-.6-.3-.3-.7-.6-.8-.5-.2 0-.5 0-.8-.3-.2-.3-.5-.4-.6-.3l-.1-.3c0-.3-.6-.7-1.3-.7-.6 0-1.2-.4-1.4-.7 0-.2-.4-.4-.8-.4l-1.2-.4c-.3-.3-.7-.5-1-.5a1 1 0 0 1-.6-.4 1 1 0 0 0-.9-.2l-.5-.1h-.3c-.2 0-.4 0-.4-.2s-.2-.2-.4-.2c-.3.1-.8 0-1.2-.4-.5-.3-1.1-.6-1.4-.6-1 .1-2.7-.2-2.3-.5.2-.1-.1-.2-1-.2-.6 0-1.2 0-1.2-.2s-.2-.2-.4-.1c-.3 0-.5 0-.4-.1 0-.1-.2-.3-.6-.4a1008.3 1008.3 0 0 1-5.5-.7l-.6-.1c0-.2-1-.3-2.7-.3-1.5 0-2.8-.2-2.8-.3a21 21 0 0 0-4.7-.2c-3.1 0-4.5 0-4.6-.2-.2-.2-.8-.2-2.6 0-2.2.3-6 .4-6.6.3-.2 0-2.4 0-4.9.3-.7 0-.8 0-.8-.4l-.4-.8c-.4-.2-.4-.3 0-.3s.4 0 0-.2c-.4 0-.7-.3-.7-.5l-.1-.4c-.3.1-1-.6-.8-.8v-.2c-.4 0-1.8-1.3-1.8-1.6l-.4-.2a.6.6 0 0 1-.6-.5c-.2-.5-.7-.8-1-.6l-.3-.1c0-.3-1.2-.9-2.2-1-.3 0-.8-.3-1-.6-.1-.2-.5-.4-1-.4-.6 0-1 0-1-.3s0-.3-.3 0c-.2.2-.3.2-.3 0s-.4-.3-.8-.3h-.8l-.2-3.8a127.7 127.7 0 0 1 .5-14.2c0-.4.3-.6.7-.6.2 0 .4-.2.4-.3 0-.2.1-.3.3-.4.3-.1.5-.4.6-.7 0-.3.2-.5.3-.5.4 0 1.1-1 1.2-1.6 0-.3 0-.5.2-.5v-.3c0-.2 0-.4.2-.4.1 0 .2 0 0-.2 0-.1.1-.3.4-.4l.2-.3v-.3c.2-.2.3-.5.2-.7 0-.2 0-.4.2-.5.8-.2 0-10.6-.8-10.6 0 0-.3-.4-.4-1-.3-.9-1-1.8-1.4-1.8-.2 0-.3-.2-.3-.4 0-.5-1-1.5-1.4-1.5-.1 0-.2-.1-.2-.3 0-.4-1.2-1.3-1.8-1.3-.2 0-.3-.2-.3-.4 0-.5-1-1-1.6-.8-.2 0-.3 0-.2-.2.1-.2 0-.2-.1-.2-.6 0-1 0-.8-.3 0-.1-2-.2-6-.2-5.5 0-6.2 0-6.2.4m9.4 8c4.8 2.4 5.4 9.4 1 12.3-.7.4-1.4.8-1.5 1-.5.4-.4 32.7 0 33h3.3c5.3 0 7 1.8 6.8 7.3v2.5h20c21.7.2 21.6.2 27.2 1.5a52.3 52.3 0 0 1 39.7 51l.2 6.4h8.5c4.6.1 8.8.2 9.1.1h.7v-2.3c0-5.5 2.6-7.8 8.8-8 5.4 0 7.4.9 9 4l1 1.7V145l-.7 1.2c-1.7 3.5-3.6 4.4-9 4.3-6.7-.2-8.8-1.9-9.2-7.6 0-1.4-.2-2.6-.2-2.6 0-.3-17.9 0-18 .3l-.1 22.7v22.3h-5.4V184c0-7-4-12.8-10-14.4a46 46 0 0 0-13.7.2c-5.6 2-9 7-9.2 13.7v2.3h-2.8l-2.9-.1-.1-2.4c-.2-3-1.5-6.8-2.9-8.1l-.8-1c-1.6-2-4.2-3.4-6.8-4-2.7-.5-11.2-.3-13.2.4a15 15 0 0 0-9.1 13.9v1.3H221v-2c0-7-4.2-12.8-10-14.2-1.8-.4-11-.5-12.6-.1-6 1.4-10.3 7.3-10.3 14.5v1.8h-5.5l-.1-2.5c-.4-7-4.3-12.2-10-13.7-1.8-.5-11-.5-12.9 0-6 1.5-10 7.1-10 13.9v2.3h-5.5l-.1-2.3c-.5-7.3-4.2-12.4-10-14a55 55 0 0 0-12.8 0c-6 1.6-9.7 6.7-10 13.8l-.2 2.5h-2.4l-2.4-.1v-45.4H90l-.1 2.3c-.3 5.8-3.2 8-10.3 8-6 0-8.1-1-9.8-4.6-.7-1.5-1-24.5-.3-27 1.2-4.1 3.9-5.7 10-5.7 7.4 0 10.4 2.6 10.4 8.6v1.7h16.3l.1-5.6a52.2 52.2 0 0 1 40-51.9c5.5-1.3 5.6-1.3 25.9-1.4l18.8-.1v-3c.2-3.7.7-4.8 3-6.2.5-.4 1.2-.5 4-.6h3.4V38.1l.1-16.5-1.2-.7c-7.9-4.4-1.3-16.6 6.7-12.6m-66.2 95a5.6 5.6 0 0 0-3.5 5.5c.6 5.8 8.8 5.4 10.2-.5.8-3.5-3-6.4-6.7-5m121.8-.2c-5.7 1.1-5.6 10.2.1 10 1.7 0 2.9-.3 3.5-1l.6-.4c.2 0 .6-.5 1-1.1 1-2 .7-6.3-.5-6.3l-.8-.5c-.3-.2-.9-.5-1.4-.6l-1.2-.2-1.3.1m-29.2 5.6c-3.4.8-5 4.3-3.7 7.7.3.8.7 1.4.8 1.4.1 0 .4.1.6.4 1.6 1.3 7.5-.2 7.5-2l.3-.6c1-1 .3-5.3-1-6-1.8-1-3.1-1.2-4.5-.9m-63 3c-3.5 1.4-4.8 5.7-2.4 8 3.4 3.2 9.2.8 9.3-3.8.1-3.3-3.6-5.6-7-4.2m-43.7 4.4a33 33 0 0 0 3.6 24.7 32 32 0 0 0 46.7 8.4c5.4-3.9 12.5-15.3 9.9-15.9l-4.3-1.3-3.7-1.1-.5 1.2a22.3 22.3 0 0 1-18.2 14.4 22.5 22.5 0 0 1-24.7-27c.6-2.1.8-2-3.2-3.1l-4.2-1.3-1-.3-.4 1.3m152 0-4.4 1.4.4 2a22.4 22.4 0 0 1-42.6 13.1l-.8-1.7-1.5.4c-7.8 2.4-7.4 2.2-7 3.5 1.5 5 7.2 12.5 12.1 15.7a31.8 31.8 0 0 0 48.3-35.4c-.1-.2-1.6.2-4.5 1m-139.3 3.2c-2.7 7.1 2 17.7 9.4 21.5 9.6 4.8 22.2.4 25.9-9.2.6-1.7.6-1.8-1.7-2.5a6029 6029 0 0 0-32-10l-1.4-.3-.2.5m129.3 0a528.2 528.2 0 0 0-8 2.4 1571.5 1571.5 0 0 0-23.5 7.4l-2 .6v.8a11.9 11.9 0 0 0 2.2 4.3c10 15.5 35 7 34-11.5-.2-4.1-.6-4.7-2.7-4m-7 7.5c1 1.1.2 2.9-1.4 2.9-1 0-1.8-.7-1.8-1.7 0-2 1.9-2.7 3.2-1.2m-99.3 4.1c.8.9.7 1.8-.2 2.6-1.3 1-3 .3-3-1.3 0-1.7 2-2.4 3.2-1.3m-28.1 43.6c3.7 1.7 5.1 4.9 5.1 11.7v4l.8.1c.4.1 3.8.2 7.5.1h6.7l.2-4.5c.3-9.6 2.5-12 11.4-12 7-.1 8.8.7 10.9 4.9l.8 1.8.2 4.9v4.8h15l.1-4.5c.3-7 1.8-10.1 5.8-11.5a57 57 0 0 1 11.7-.1c4 1.1 5.8 4.6 5.9 11.5 0 2.6.1 4.5.2 4.6.3.2 14.4.2 14.8 0 .1-.1.3-1.6.3-4.5.2-6 1.3-8.6 4.7-10.3l1.4-.8h5c6.2-.1 7.5.2 9.6 2.6 1.9 2.2 2.3 3.8 2.5 9l.2 4h14.9l.1-4.6c.3-9.6 2.5-11.8 11.5-11.9 6.8 0 9 1 10.6 4.7 1 2 1 2.5 1.2 7.2l.1 4.6 7.4.1h7.4l.1.8c3.7 18.3 1.2 37.7-6.5 49.4a39 39 0 0 1-2.3 3.3c-9.1 11.9-22.4 18-54.2 24.6-11.8 2.5-14.2 3-19 4.2-11.7 2.9-18.5 6-21.4 10l-.9 1.1-1.5-1.5c-5-5-13-7.8-33.3-12.2l-12.4-2.7a204.9 204.9 0 0 1-24-6.7c-27.3-9.5-39.5-33.6-33.8-67.2l.6-3h7.9c4.2 0 8 0 8.1-.2.4 0 .4-.6.4-4.1 0-6.5 1.4-9.8 4.8-11.5a25.1 25.1 0 0 1 13.4-.2m130 76c-5.8 1.5-5.2 10.2.6 10a5.6 5.6 0 0 0 5-3.3c1-2.2.3-6-1-6l-.4-.1c0-.6-2.9-1-4.3-.7m-119.8.3c-5.5 1.7-4.8 9.6.7 9.6 3.7 0 6-2.4 5.8-6.4-.1-2.2-3.9-4-6.5-3.2m90.4 5.4a5.5 5.5 0 0 0-3.2 7.5c1.7 3.7 7.4 3 9.3-1 1.9-4-2-8-6-6.5m-61.5.1a5.4 5.4 0 0 0-3.7 5.4c.2 1.4.8 3 1.3 3 .2 0 .4 0 .5.3.5.8 3.2 1.3 4.7.8 1-.3 2.8-1.8 2.8-2.1 0-.2.2-.5.5-.8 2.5-3.3-2-8.1-6.1-6.6m29.3 6.2c-4.5 1.8-5.9 7-2.6 10.2 3.1 3 7.8 3 10.7 0 4.6-5-1.5-12.7-8-10.2m-94 19.4 19.1 1.8 7.8.6V297l-1.8.3h-1.7l3.2 7.3 4.5 10 1.3 2.8h4.5V330l-6.2.4a832.4 832.4 0 0 0-24.2 2l-.1-6.3v-6.4l1-.2 2.2-.1 1-.1c0-.2-1-2.8-1.2-3-.2-.3-2.6-.3-8.5 0l-3.6.1-.6 1.7-.6 1.8c0 .1.8.2 1.8.2l1.8-.1.1 6.6c0 5.6 0 6.5-.3 6.5a627.6 627.6 0 0 0-23 2.6c-.4 0-.4-.1-.4-7.7v-7.6l2.1-.2c2.6-.2 2 .8 4.6-6.6a587.8 587.8 0 0 1 6.8-18s-.8-.2-1.8-.2l-1.8-.1v-7.4l-.1-7.5 1.3.2 12.7 1.3m196.1 6.8v7.1l-1.2.1-2.5.2h-1.2v22.8l2.9.1 5 .3 2.1.2v-4l.2-4h3.7l7.6.1 4 .2v12c0 11.2-.1 12-.5 12l-6.5-.8c-15.4-1.8-43-4.4-46-4.4h-.7v-13l2.5.1 2.4.1v-20.6l-2.4.1h-2.5v-12.8h.7a820.6 820.6 0 0 0 31.7-2.8h.7v7m-38 4.2v8l-3.3.2-8.2.2h-5v-1.6c0-.9-.2-1.6-.3-1.6h-9.5v3.8h10.7v10.7h-10.7v4.2h9.5c.1.1.2-.6.3-1.5v-1.6h4.7l8.3.2 3.5.2v16h-2.3c-9-.6-31.5-1.5-43.8-1.8l-7.7-.1v-11.8h4.2v-17.7H213v-11.8l7.7-.2a1412.5 1412.5 0 0 0 44.7-1.8h1.4v8m-108.4-7.2 14.8.6c19 .6 23.3 1 28.4 3.2 12 5.2 11 18-1.6 22.2a76.5 76.5 0 0 1-20.1 1.9h-4v3h5.7v11.9H180c-4 0-24 .8-30.5 1.3l-2.1.1v-12.6h2.1c3.5 0 3.1 1.1 3.1-9.8 0-11 .4-9.7-3-9.7h-2.2V285l2.2.1 8.6.5m17.7 12.1v4.7h3.2c6 0 8-1.3 5.8-3.6-1-1-8.7-1.9-9-1m-65.4 5.7-1.5 4h5.9c.1 0-2.5-7.6-2.7-7.8l-1.7 3.8m105 30.1c.9 1.8 0 2.9-1.2 1.8-.7-.7-1-.7-2-.7h-1.2v1.2c-.2 1.7 1 2.2 1.3.6.2-.7.7-.9 1.1-.3.4.5.3 3.8-.2 4-.4.3-1 0-1-.7 0-.4-.7-.8-1-.5-.4.1-.4 2-.2 2.5.4 1 3.1.4 3.7-.8 1-1.8 2 0 1.1 1.8-.5 1-1 1.2-6 1-3.4-.3-4-.5-2.9-1.4.9-.6 1-7 0-7.6-1.4-1-.5-1.3 4-1.5 4.4 0 4.2-.1 4.6.6m-14-.3c.1.2.2 1.6.1 4.3-.1 4-.1 4 .4 4.4 1.1.8.2 1.5-1.9 1.5-2.3 0-3.2-.7-2.1-1.5.7-.5.6-5.8-.1-6.4-1.2-1-.4-1.9 1.8-2.3 1.4-.3 1.5-.3 1.8 0m-22 .6c.5.5.5 1-.3 1.4-1.3 1-3.3.9-3.3-.1 0-1.2 2.8-2.2 3.6-1.3m59.3.3c.7.4.6 1.1-.3 1.6-1.3.9-3.2.5-3.2-.6 0-1 2.4-1.6 3.5-1m-65.4 1.4c0 .8.1.8 1 .9 1.7.1 1.6 1.7 0 1.7h-.8v1.6c0 1.8.4 2.5 1.2 2 .6-.2.8-.2 1 .3.4 1.7-3.3 2.9-4.8 1.5-.6-.6-.6-.9-.8-3l-.2-2.4h-.6c-1.2 0-.8-.8 1.1-2.2 2-1.5 2.7-1.6 2.9-.4m-30.3.7c3 1.6 1.7 5.8-1.9 6.2l-1.2.2v.8c0 .7.2 1 .6 1.3 1.2.8.4 1.6-1.8 1.9-2.3.2-3.5-.3-2.4-1.3.8-.8.1-7-1-7.4-.8-.4-.7-1.2.3-1.3 5.3-.9 6.4-1 7.4-.4m52 .1c.7.4 1 1.4 1 3.3 0 1 .2 1.5.4 1.7.6.5.5 1.1-.2 1.6-.7.6-2 .7-2.5.2-.2-.3-.4-.2-1.2.1-1.2.7-2.4.5-3.1-.6-1.2-1.7-.3-2.9 2.8-3.5.5 0 .6-.2.6-1 0-1.1-.5-1.2-1.5-.2-.4.5-.9.9-1 .9-1 0-1.3-1-.6-1.7a4.9 4.9 0 0 1 5.3-.8m-8.5-.1c1.2.3 2 1.1 2 2 0 1.4-1.8 2-2.4.8-.5-1.1-1-1.3-1.5-.7-1.1 1.4.7 3.5 2.5 2.8.9-.3 1.4.2 1 1-.4 1.5-3.4 2-5 1-4-2.3-1-8.2 3.4-7m33.7 0c.2 0 .3.3.3.6 0 .5.2.5 1 0 2.1-1.8 3.9 0 4 4 0 .7 0 1.5.2 1.8.5.8 0 1.2-2 1.2s-2.4-.3-1.9-1.4c.8-1.5.3-4.2-.7-4-.4.1-.4.3-.4 2.5 0 2.8-.2 3-2.4 2.8-1.6-.1-2-.5-1.6-1.3.6-.8.8-3.6.3-4-1-.7-.3-1.4 1.7-2l1-.3.5.1m-40.3.8.1 2.7c0 1.5.1 2 .5 2.5 1 1.2.2 1.8-2.3 1.8-1.9 0-2.4-.4-1.9-1.4.7-1 .6-3.6 0-4-.8-.4-.6-1 .6-1.5 2.2-1 2.8-1 3 0m54.7 0c0 .4-.2.8-.4 1a1 1 0 0 0-.4.7c0 1.5-1.2 2.4-3.4 2.6-1 0-1.5.2-1.5.4 0 .4.3.4 2.4.3 4.4-.1 4.2 4.2-.3 4.6-3.4.3-6.2-1.5-4.3-2.8.2 0 .2-.3 0-.6-.5-.7-.4-1.3.1-1.9.5-.4.5-.5.2-1.1-1.3-2.4.6-4 4.3-3.7h2.3c.6-.5 1-.2 1 .5m4.4 2.6c0 2.6 0 3 .3 3.4 1 1-1.2 1.7-3.3 1.1-1.2-.3-1.4-.7-.8-1.5.6-.8.7-3.4.1-3.8-.3-.4-.4-1.1 0-1.3.4-.3 2.6-.8 3.2-.8h.6l-.1 3m-71.7-2.5c1.8.8 1.7 3.2-.1 3.2-.6 0-.8-.1-1-.7-.3-1-1.4-1.2-1.7-.2-.5 1.7 1.2 3 3.4 2.3.5-.2.8.6.5 1.3-1.2 2.2-5.3 1.8-6.5-.6-1.7-3.3 1.8-6.8 5.4-5.3m110.6.2c.6 1-.9 2-2.6 1.7-1-.1-1.3-.4-1-1.1.2-1 3-1.4 3.6-.6m-33.6.4c0 .5 0 .5.7 0 2.4-1.7 4-.4 4 3.4 0 1.2 0 2.3.2 2.3 1 .7 0 1.3-2 1.3s-2.4-.3-1.9-1.4c.5-1 .6-3.5 0-4-.9-.7-1.3.5-1.2 3.1.2 2 .2 2-1.5 2-2 0-3.1-.7-2.3-1.4.6-.6.7-3.8.2-4.2-.6-.4-.2-1 1-1.4 1.6-.5 2.7-.4 2.8.3m-85.6-.1c1 .4 1.2.8 1.4 2.6.2 2 .3 2.4.7 2.4.9 0 .1 1.6-1 2-.7.3-.9.3-1.5 0s-.8-.3-1.6.2c-1.2.6-2.3.4-3-.5-1.1-1.4-.1-3 2-3.6 1.1-.3 1.3-.3 1.3-.9 0-1.2-.7-1.4-1.6-.4-.8 1-1.8 1.2-2 .2-.1-1.6 3.2-2.9 5.3-2m-19.2 1.1c0 1.7.4 2.3 1.2 1.8 1.2-.8.7-3-.7-3-.5 0-.5.1-.5 1.2m90.2-1c-.6.7-.2 2.4.6 2.4.5 0 .7-.5.7-1.3 0-1.2-.6-1.7-1.3-1m26.2.4c2.6 1.8 2 3.8-1 3.6-1.6-.2-1.7-.1-1.7.3 0 .9 1 1.3 2.3 1 1.6-.4 2 .6.5 1.6-3.3 2.2-7.4-1.7-5.5-5.2 1-1.8 3.9-2.5 5.4-1.3m-104-.2c.4.2.7.5.8 1 .3 1.6-1.3 2.7-2.6 1.9-1.2-.8-1 1.9.1 2.9 1.3 1 .7 1.6-2 1.8-2.4.1-3-.2-2.4-1.4.7-1.1.6-3.1-.2-4-.7-.7-.6-1 .6-1.5 1.5-.8 2.4-.9 2.8-.3l.4.5.6-.6c.7-.6 1-.7 2-.3m112 1c2.3 1.7 1.7 3.7-1.2 3.5-2-.2-2.3 0-1.5.8.4.6 1.2.7 2.5.4.8-.2.8-.2.7.4-.2 2.3-4.4 2.3-6 0-2.5-3.2 2.2-7.6 5.5-5.1m-10.4.1c-.8.5-.5 1.2.4 1.2.8 0 1.1-.5.5-1.1-.3-.4-.4-.4-1 0m16.4.3c0 .7.2.7 1 0 1-.8 2.3-.2 2.3 1.3 0 1.6-1.6 2.4-2.7 1.3-.7-.6-.8-.5-1 1 0 1 0 1.2.5 1.8 1 1 .5 1.6-1.7 1.5-2.5 0-3.7-1-2.6-1.9.7-.5 1-3 .4-3.8-.7-1 .5-1.8 2.7-1.7.9 0 1 0 1 .5m-8.4.3c-.6.3-.3 1 .5 1.1.6.1.6 0 .5-.5 0-.7-.5-1-1-.6m-131.3 1.4c.1.4.4 1.4.5 2.4.2 1 .5 1.9.7 2 .8 1-.6 2-2.8 1.9l-1-.1v-2.1c0-2.4-.3-3.1-1.3-2.8-.6.2-.5 2.6.1 4 .6 1-1.4 2-3.3 1.5-.6-.2-1-1.2-.5-1.2s.1-3.2-.6-4c-.6-.6-.3-1 1-1.7 1.6-.8 2.2-.8 2.5-.2l.3.6.6-.7c1.1-1.2 3.1-1 3.8.4m147.8-.8-.3 2.8c-.2 2-.2 2.3.1 2.7.8.8.2 1.4-1.5 1.4-2.3 0-3.7-1-2.7-1.8.8-.6 1.2-3.5.5-4-1-.9.2-1.6 2.8-1.6 1 0 1 0 1 .5m-85.7 0c-.4.5-.2 1.2.4 1.2.3 0 .4-.2.4-.7 0-.8-.3-1-.8-.5m90.5 0c.2.1.4.4.4.7 0 .7 0 .7.9.1.9-.7 2.2-.6 3 .3l.8.7-.2 2.3c0 1.7 0 2.4.2 2.7.5 1-.1 1.3-2 1.2-2-.2-2.5-.6-2-1.6.6-1 .9-3.3.5-3.8-1-1-1.5 0-1.6 2.7v2h-1.5c-2.1 0-3.4-.7-2.4-1.4.6-.5 1-3.7.6-4-.9-.5-.2-1.3 1.5-1.7 1.4-.3 1.4-.3 1.8-.2m24.5.2c1.6.5 1.8 1.1.7 1.7-.8.5-1.7 6.6-1 7 .7.4 1.9.1 2.4-.6.7-.8 1.1-1 1.4-.4.2.3.4.3 1.2 0a3 3 0 0 1 2.2-.5h1.3v-.7c.1-1-.4-1.2-1.3-.5-1.2.8-2.5.4-1.9-.7.7-1.4 4.6-1.3 5.9.2.5.5.5 1.2.2 3.1-.3 1.3-.3 1.7 0 2 .7 1.4-2 2.3-3.1 1.1-.4-.4-.6-.5-1.2-.3-1.1.3-2.5-.2-3-1.1l-.3-.8-.7.8c-.5.7-.6.8-1.3.5l-3.7-.6c-3.6-.6-4-.9-2.7-1.7.7-.5 1-1.3 1.3-4.6l.3-2.4-.7-.5c-1.4-1.1 1.3-1.8 4-1M120 342.2c.6.5.7 1 1 2.3.2 1.3.3 1.9.7 2.2 1.3 1-1 2.9-2.6 2-.3-.2-.6-.1-1.2.3-1.3.7-2.9.5-3.4-.5-.8-1.5.2-3 2.1-3.5 1-.2 1.1-.3 1.1-.9 0-1.4-.8-1.5-1.6-.2-1 1.2-2.4 1-2-.2.6-1.9 4.5-2.9 6-1.5m36.6.2c-.3.6-.1 1.3.4 1.2.2 0 .4-.3.4-.8 0-.8-.5-1-.8-.4m138 0c1 .3 1 .3 1.7 0 1.3-.7 1.6.6.5 1.6-.3.2-.5.6-.5 1 0 1.2-1.8 2-3.8 1.8l-1.2.1c-.3.5.7 1 2.2 1 3.2 0 4.1 2.3 1.6 3.9-2.7 1.6-8.4-.6-6.5-2.6.4-.4.5-.5.2-1-.4-.8-.3-1.2.4-1.6.5-.4.6-.4.2-1.4-.9-2.4 1.9-4 5.1-2.8m-181.2.2c.4.4.4.4-.3 1-.5.5-.8 1.3-1.5 3.3-1.2 4-1.8 4.2-3.8 1.5-.9-1.1-1.2-1-1.9.9-.9 2.4-1 2.4-3.8-1a11.2 11.2 0 0 0-2.5-2.5c-1.4-.3-.2-1.6 1.8-2 1.7-.2 2.5 0 2.5.8 0 .6.7 1.8 1 1.8.7 0 .8-1 .1-1.5-1.1-1 .8-2.1 3.2-2l1 .1v1c0 .8.4 1.7.9 1.7.4 0 .7-1.4.4-2-.6-1 2-2 3-1m178.9.7c-.3.4-.2 1.8 0 2.2.7.8 1.7-.6 1.2-1.8-.2-.6-1-.9-1.2-.4m-206.6.2c.7 0 2.5 2.2 5 5.8.7 1.2 1.4 2 1.7 2 .7 0 .6 1.1-.2 1.5-2.2 1-5.8.8-4.8-.4 1-1 .4-1.3-1.3-1-2 .4-2.6 1.2-1.3 1.5.8.2.5.9-.4 1.3-2 .8-4.3.2-2.9-.9.7-.5 2-5.3 2-7.4 0-1.9.6-2.8 1.7-2.5l.5.1m12.6 1.6c1 1.3.3 2.3-1 1.5-.9-.5-1.6-.5-1.6 0 0 0 .7.5 1.5.8 3.9 1.8 2.5 5-2.1 5-1 0-1.5-.4-1.9-1.4-.4-1.3.2-1.5 1.4-.6.9.7 1.3.7 1.5.2 0-.3-.2-.5-1.1-1-1.6-.6-2-1.2-2-2.5 0-1.8.8-2.3 4.4-2.6.2 0 .6.2.9.6m130.2-.4c0 .4 1 1 1.8 1s1.4-.6 1.2-1c-.2-.3-3-.3-3 0m96 .3c.1.1 0 .9-.1 1.7-.4 1.9-.4 1.8.7 1.5 2-.5 3.4.7 3.4 2.9 0 3.5-3.7 5.5-6.6 3.6a4 4 0 0 0-1.6-.7c-.8 0-.8 0-.4-1.3.8-2 1.2-5.6.8-6-.6-.6-.4-1.3.3-1.6a13 13 0 0 1 3.6 0m-207.4 1c-.4 0-.3 1.1.1 1.3.5.2.9-.3.7-1-.1-.6-.2-.6-.8-.4M85 347.7a3 3 0 0 0-.3 1.3l-.2 1 .8-.2c1.4-.3 1.5-.4.6-1.4-.4-.5-.9-.8-1-.7M314 350c-.4.8.3 1.5.8.8l.4-.8c0-.6-.9-.6-1.2 0m-23.7 0c0 .7 2 1.5 2.7 1 .6-.4.2-1-.6-1l-1.4-.1h-.7m33.5.7c-.5.7-.4 3.5.2 3.6 1 .1 1.7-2.8.9-3.6-.5-.4-.7-.4-1 0"/><path fill="#e56629" d="M201.8 8c-6 2-7 10-1.5 13l1.2.7v16.5l-.1 16.4-3.4.1c-3.3.2-4.6.5-4.3 1 .1.2 0 .2 0 .1-1.2-.7-2.5 2.2-2.6 5.7l-.1 3h-18.8c-20.3.2-20.4.2-26 1.5a52.2 52.2 0 0 0-39.9 52l-.1 5.5H90v-1.7c0-6-3.1-8.6-10.4-8.6-6.2 0-9 1.6-10 5.7-.7 2.5-.5 25.5.2 27 1.7 3.6 3.8 4.6 9.8 4.6 7.1 0 10-2.2 10.3-8v-2.3h16.4V163l.1 22.7h4.8l.1-2.4c.4-7 4.2-12.2 10-13.7a55 55 0 0 1 12.8 0c5.9 1.5 9.6 6.6 10 14l.2 2.2h5.6v-2.3c0-6.8 4-12.4 10-14 1.9-.4 11-.4 12.8 0 5.7 1.6 9.6 6.9 10 13.8l.1 2.5h5.5V184c0-7.2 4.2-13.1 10.3-14.5 1.7-.4 10.8-.3 12.5 0 6 1.5 10 7.3 10 14.3v2h5.7v-1.3c0-6.2 3.8-12 9.1-13.9 2-.7 10.5-1 13.2-.3 2.6.5 5.2 2 6.8 4l.8.9c1.4 1.3 2.7 5 2.9 8.1l.1 2.4h5.6v-2.2c.1-6.7 3.6-11.8 9.2-13.7a46 46 0 0 1 13.6-.2c6 1.6 10 7.4 10 14.4v1.8h2.8l2.7-.1v-45c.2-.3 18-.6 18.1-.3l.2 2.6c.4 5.7 2.5 7.4 9.1 7.6 5.5 0 7.4-.8 9.1-4.3l.6-1.2V119l-.8-1.6c-1.7-3.2-3.7-4.2-9-4-6.3.1-8.9 2.4-9 7.9v2.2l-.6.1h-9.1l-8.5-.1-.2-6.5a52.3 52.3 0 0 0-39.8-51c-5.5-1.2-5.4-1.2-27.1-1.3l-20-.1V62c.2-5.5-1.5-7.3-6.8-7.3h-3.3c-.4-.3-.5-32.6 0-33 .1-.2.8-.6 1.4-1 6.6-4.3 1.4-15.2-6-12.7m-58.5 94.1c1.3.4 3 1.5 2.8 1.9 0 .1.2.6.6 1 3.4 4-3.3 10.3-7.7 7.2-5.2-3.6-1.7-11.9 4.3-10m121.7.4c1 .5 1.7 1 1.5 1.3 0 .1.1.3.4.4 1.9.4 1.7 7.5-.2 7.5-.1 0-.4.2-.6.5-1.5 1.6-6 1.2-7-.6 0-.3-.3-.5-.4-.4-.1 0-.5-.5-.8-1.1-2.1-4.7 2.4-9.5 7-7.6m-28.5 6c.7.3 1.2.7 1.2.9 0 .1 0 .3.3.4 1.1.3 1.8 4.9 1 5.8-.3.2-.4.5-.4.7 0 1.7-6 3.2-7.5 1.9a.9.9 0 0 0-.6-.4c-.1 0-.4-.4-.5-.8-.2-.5-.4-.9-.6-.9-.4 0-1-1.9-1-3 0-4.1 4.2-6.6 8-4.7m21.8 0v.5c.1-.3.1-.6 0-.8v.4m-84 2c5 2.4 3.8 9.7-1.7 10.6-2.2.4-5.5-1.4-5.5-3 0-.3 0-.5-.2-.5-.3.2-.5-.6-.5-2 0-4 4.3-6.7 7.9-5m-41.1 6c2.6.8 3.4 1.4 2.7 2-.2 0-.2.1.1 0 1-.4 1.5-.4 1-.1-.2.2-.2.2.3.1.3 0 1 0 1.3.2.5.2.9.3 1 .2 0-.2 1 0 5.3 1.3a979.3 979.3 0 0 0 18.3 5.7 327.4 327.4 0 0 0 9.8 3c1.3.5 2 .9 2 1 0 .2.3.4.7.4.4 0 .8.1 1 .3.1.2.4.3.6.2.1 0 .3.1.4.4.2.4.3.4.5.2.2-.1.4-.2.4 0l.1-.2c.2-.4.6-.3 4 .7l4.2 1.3c.8.2.9.7.2 2.5a35.6 35.6 0 0 1-13.6 15.8 31.9 31.9 0 0 1-46.8-35.5l.4-1.3 1.8.6c1 .3 3 .8 4.3 1.3m150.7.8a31.8 31.8 0 0 1-59.6 20.6c-2.3-4.5-2.4-4.4 1.3-5.5 6-1.8 5.7-1.8 5.9-1.3.1.3.1.3.2 0 0-.3 0-.3.2 0 .1.2.2.2.3 0 .2-.2.3-.2.4 0 .2.3.2.2.2 0 0-.3.1-.4.3-.4 0 .1.3 0 .3-.2.1-.2.5-.3.8-.3.4 0 .8-.2.9-.4 0-.1 1-.6 2.2-1a7990.4 7990.4 0 0 0 28-8.7c4-1.2 4.7-1.4 5.1-1.3h.7c.6-.5 2.3-.8 2.6-.5.3.2.4 0 .5-.4.1-.8 8.6-3.6 9-3l.7 2.4m-9.4 3.4c-.1.2-.2.5-.1.7 0 .2.1.1.1-.1s.2-.5.3-.5c.2 0 .3-.2.2-.3-.1 0-.3 0-.5.2m.6 3.4v.8c.1-.5.1-1.1 0-1.6v.8m-3.3 5.4v.4c.2-.3.2-.6 0-.8v.4m1.4 1c.3.7 0 1.8-.3 1.2-.2-.5-.2-.5-.2 0v1l-.1.2h.5c.2.3.2.3.1 0 0-.2 0-.8.2-1.2.2-.6.2-1 0-1.2-.3-.4-.3-.4-.2 0m-40.9 1.9c.1.6.2.7.4.2 0-.2 0-.4-.2-.6-.2-.2-.3 0-.2.4m-57 0c-.4.3-.2.5.1.4.2 0 .4-.2.4-.3 0-.3-.4-.3-.6 0m57.5 1.4c-.1.2 0 .2 0 .1.2 0 .4 0 .6.3 0 .2.3.3.3.3.1-.1 0-.4-.3-.6-.3-.3-.5-.3-.6 0m-56.6 1.2v.7l.1-.3c0-.3 0-.4.2-.1.2.2.3.2.4 0v-.3c-.2 0-.4 0-.4-.2s-.2 0-.3.2m57.7-.2c0 .2-.1.2-.3.2-.1-.1-.1 0 0 .2 0 .3.1.3.3 0 .1-.2.2-.1.2.2 0 .2.1.4.3.3.1 0 .3.1.3.3.1.2 0 .3 0 .2-.2-.1-.3 0-.3.1.1.6.5.4.5-.3l-.1-.6c-.1.1-.4 0-.6-.4-.2-.3-.3-.3-.3-.2m36.9.8c0 .9 0 1 .4.4l.4-.8-.3.2c-.2.5-.3.5-.4 0-.2-.5-.2-.5-.1.2m-95.3.2c.1.3 0 .4 0 .4-.2 0-.3.2-.3.3 0 .2.1.2.4 0 .3-.4.3-.5 0-.8-.2-.2-.2-.2 0 .1m92 0c-.1.3-.1.4 0 .4s.3 0 .4-.2c0-.3.1-.2.3 0 .3.3.3.3.2 0-.1-.5-.5-.5-.9-.1m2 1.8c0 .2-.3.4-.6.5-.3 0-.4.2-.3.5l-.1.5c-.2 0-.2.2-.1.3l-.3.5c-.4.3-.4.3-.2-.1 0-.4 0-.4-.3-.1-.2.2-.2.3 0 .4v.3c0 .2.1 0 .5-.3.3-.3.6-.6.5-.7l.2-.2c.5-.1.8-.5.7-.7l.1-.7c.2-.3.2-.5 0-.5l-.2.3m-96.1 1.9-1 1 1-1c1-.8 1.2-1 1-1l-1 1m90.5 3c-.2.2-.5.4-.6.3-.5-.2-.4 0 .2.4h.3c0-.2.2-.5.5-.7.4-.3.5-.5.3-.5l-.7.4m-6.6 2.7c.2.2.7.2.9 0 0-.2-.1-.3-.4-.2-.3 0-.5 0-.5.2m-134 28.3c-4.8.8-7 4.7-7 12.3 0 3.5-.1 4-.5 4.1-.2.1-3.9.2-8.1.2h-8l-.5 3c-5.7 33.6 6.5 57.7 33.8 67.2l2.3.8a214 214 0 0 0 21.7 6l12.4 2.6c20.3 4.4 28.3 7.3 33.3 12.2l1.5 1.5.9-1.1c2.9-4 9.7-7.1 21.3-10l19.1-4.2c31.8-6.7 45-12.7 54.2-24.6 1-1.2 1-1.3 2.3-3.3 7.7-11.7 10.2-31.1 6.5-49.4l-.1-.7h-7.4l-7.4-.2-.1-4.6c-.2-4.7-.2-5.2-1.2-7.2-1.7-3.7-3.8-4.7-10.6-4.7-9 0-11.2 2.3-11.5 11.9l-.1 4.6H255l-.2-4c-.2-5.2-.6-6.8-2.5-9-2.1-2.4-3.4-2.7-9.7-2.6h-4.9l-1.4.8c-3.4 1.7-4.5 4.3-4.7 10.3 0 3-.2 4.4-.3 4.5-.2 0-3.5.2-7.4.2-4 0-7.2-.1-7.4-.2 0-.1-.2-2-.2-4.6-.1-6.9-2-10.4-6-11.5-1.3-.4-10.4-.3-11.6 0-4 1.5-5.5 4.6-5.8 11.6l-.1 4.5h-14.9l-.1-4.8-.2-5-.8-1.7c-2-4.2-3.9-5-11-5-8.8.2-11 2.5-11.3 12.1l-.2 4.4-6.7.1H140l-.8-.2v-4c0-6.8-1.4-10-5.1-11.7a34 34 0 0 0-11-.6m23.7 75.6c1.2.4 3.4 2.2 3.3 2.6l.3.8c.8 1.4 0 4.5-1.4 6-2.3 2.3-7.6 1.6-8.3-1.2 0-.3-.2-.6-.3-.5-.3.2-.7-1.3-.7-2.5 0-3.7 3.5-6.3 7.1-5.2m120.6.6c.5.3.9.7.9.8 0 .2.2.4.4.4 2 0 2 5.6-.1 7.5-2.2 2.1-6.6 2-7.7 0a3 3 0 0 0-.4-.7c-.1-.1-.1 0 0 .2 0 .2 0 .2 0 0-2.5-2.3-1-7.8 2.3-8.7 1-.3 3.8 0 4.6.5m-90.5 5.3c1 .6 2.3 1.8 2 2.1 0 .1 0 .3.2.4 1 .3 1 3.8.2 4.9-.3.3-.5.6-.5.8 0 .3-1.9 1.8-2.8 2-1.5.6-4.2.1-4.7-.7-.1-.2-.3-.4-.5-.4s-.4-.2-.6-.6l-.6-.8c-.4-.2-.8-1.7-.8-2.7 0-4.1 4.5-6.8 8-5m61.4.2c.7.4 1.3.8 1.3 1l.5.7c3 2.9 0 8.6-4.3 8.6-1.7 0-3-.4-3.7-1.2l-.8-1v-.6c0-.1 0-.2-.1-.1-.4.2-1-1.4-1-2.7 0-4.2 4.2-6.6 8.1-4.7m-31.1 5c7.2 2.3 7 12-.2 14-4 1.3-9.8-3-8.9-6.5v-.5c-.2 0-.2-.3-.2-.8.9-4.8 5-7.6 9.3-6.2m47.7 24.8c.2.1.6.1.8 0h-.8m-5.1.3h.8l-.4-.1h-.4m-87.8.3h.8-.8m5.4.2h1-1m71.2 0c.2.1.6.1.8 0h-.8m-64.3.3h1.2l-.7-.1h-.5m57.2 0h1-1m-48.4.3h1-1m39.3 0h1.4-1.4m77.3 20.8v5.8a615.7 615.7 0 0 0 0-5.8m-122-9.8h1.4l-.8-.1h-.6m70.1.5h1.4-1.4m-95.1 9.4v4.7a390.4 390.4 0 0 0 0-4.7m61.8-9h1.9-1.9m46.6 2.7h1.6c.5 0 .2-.1-.7-.1h-1m-20.2 1h1c.4 0 .1-.1-.4-.1h-.6m10.2 5.3v2.7a124.9 124.9 0 0 0 0-2.7m59 4.2-.1 4.2v3.8l.2-4.1c0-4 0-4.5-.2-3.9m8.7.1h1.4-1.4M261 314h1.5l-.7-.1h-.8m-145 2.3h1l-.5-.1h-.5m-7.6.3h1.2l-.7-.1c-.6 0-.9 0-.5.1m106.1.2h1.9-1.9m33.3.5h1.4-1.4M108 320c.2.2.3 2 .4 6.7v6.6-6.7c0-5.6 0-6.6-.3-6.7-.3 0-.3 0 0 .1m114.2 8.4h1.3-1.3m-47.6.2h1-1m56.8 0h1-1m-64 .3h.9l-.5-.1h-.5m71 0c.2.1.6.1.8 0h-.8m-76.4.3h.8l-.4-.1c-.5 0-.7 0-.4.1m87.8.2h.8-.8m5.1.3h.8l-.4-.1h-.4m-43.8 3.6c-4.5.2-5.4.5-4 1.5 1 .6.9 7 0 7.6-1.1.9-.5 1.1 2.8 1.3 5 .3 5.6.2 6.1-.9.9-1.8-.2-3.6-1-1.8-.7 1.2-3.4 1.8-3.8.8-.2-.6-.2-2.4.1-2.5.4-.3 1.2.1 1.2.5 0 .6.5 1 .9.8.5-.3.6-3.6.2-4.1-.4-.6-1-.4-1 .3-.4 1.6-1.6 1.1-1.5-.6v-1h1.3c1-.1 1.3 0 2 .6 1.3 1 2 0 1.3-1.8-.4-.7-.2-.7-4.6-.6m-11.2.3c-2.2.4-3 1.4-1.8 2.3.7.6.8 5.9 0 6.4-1 .8 0 1.5 2.2 1.5 2.1 0 3-.7 1.9-1.5-.5-.3-.5-.4-.4-4.4.1-4 0-4.6-.6-4.5a4 4 0 0 0-1.3.2m-22.2.4c-1.5.5-2 1.7-1 2.1a3 3 0 0 0 2.7-.5c1.5-1 .3-2.1-1.7-1.6m58.6.6c-1.4.6-.8 2 .9 2 1 0 2.3-.8 2.3-1.4 0-1-1.7-1.2-3.2-.6m-65.6 1.7c-2 1.4-2.3 2.2-1.1 2.2h.6l.2 2.3c.2 2.2.2 2.5.8 3 1.5 1.5 5.2.3 4.8-1.4-.2-.5-.4-.5-1-.2-.8.4-1.2-.3-1.2-2.1v-1.6h.8c1.6 0 1.7-1.6 0-1.7-.9 0-1-.1-1-.9-.2-1.2-.8-1.1-2.9.4m-31.9.2-3 .5c-.9.1-1 .9-.1 1.3 1 .4 1.7 6.6.9 7.4-1 1 0 1.5 2.4 1.3 2.2-.3 3-1 1.8-1.9-.4-.3-.6-.6-.6-1.3v-.8l1.2-.2c3-.3 4.6-3.2 2.9-5.3-1.1-1.3-2.2-1.5-5.5-1m53.7-.1c-2.1.3-3.8 2.1-2.5 2.6.6.3.8.2 1.6-.7 1-1 1.5-1 1.5.3 0 .7 0 .8-.6 1-3 .5-4 1.7-2.8 3.4.7 1 2 1.3 3.1.6.8-.3 1-.4 1.2 0 .5.4 1.8.3 2.5-.3.7-.5.8-1.1.2-1.6-.2-.2-.3-.7-.3-1.7 0-3-1.2-4-3.9-3.6m-8.6.4a3.8 3.8 0 0 0 1.6 7.3c2 0 3.7-1.4 2.9-2.5-.2-.3-.4-.3-1-.1-1.8.7-3.6-1.4-2.5-2.8.6-.6 1-.4 1.5.7.6 1.2 2.3.6 2.3-.8 0-1.8-2.6-2.8-4.8-1.8m35-.1c-2 .6-2.5 1.3-1.6 2 .4.4.3 3.2-.3 4-.5.8 0 1.2 1.6 1.3 2.2.2 2.4 0 2.4-2.8 0-2.2 0-2.4.4-2.5 1-.2 1.5 2.5.7 4-.5 1-.1 1.4 1.9 1.4s2.5-.4 2-1.2a6 6 0 0 1-.3-1.8c0-4-1.8-5.8-4-4-.7.5-.8.5-.8 0 0-.3-.6-.8-.8-.7l-1.1.3m-40.2 0c-2.2.6-3.3 1.7-2.2 2.2.6.4.7 3 0 4-.5 1 0 1.4 1.9 1.4 2.5 0 3.2-.6 2.3-1.8-.4-.5-.5-1-.5-2.5 0-3.3-.1-3.6-1.5-3.2m55 0c-.1.2-1 .2-2.2.1-3.7-.2-5.6 1.3-4.3 3.7.3.6.3.7-.2 1.1-.5.6-.6 1.2-.1 1.9.2.3.2.5 0 .6-2 1.3 1 3.1 4.3 2.8 4.5-.4 4.7-4.7.3-4.6-2.1.1-2.4 0-2.4-.3 0-.2.5-.3 1.5-.4 2.2-.2 3.4-1.1 3.4-2.6 0-.2.2-.6.4-.7.9-.7.3-2.2-.6-1.6m3 .6c-1.7.5-2.1 1-1.3 1.8.6.4.5 3 0 3.8-.7.8-.5 1.2.7 1.5 2 .6 4.2-.1 3.3-1.1-.3-.4-.4-.8-.3-3.4V337h-.5c-.3 0-1.2 0-1.8.2m-73.1.3a3.8 3.8 0 0 0-.1 6.8c1.7.9 4.1.4 4.9-1 .3-.7 0-1.5-.5-1.3-2.2.6-4-.6-3.4-2.3.3-1 1.4-.8 1.7.2.5 1.3 2.4.7 2.4-.6 0-2-2.7-2.8-5-1.8m111.5-.2c-.8.3-1.2 1.2-.8 1.7.7.7 3.6.3 3.7-.6.2-1-1.2-1.6-2.9-1m-33.6.3c-1.2.4-1.6 1-1 1.4.5.4.4 3.6-.2 4.2-.8.7.3 1.4 2.3 1.5 1.7 0 1.7 0 1.5-2.1-.1-2.6.3-3.8 1.3-3 .5.4.4 2.8 0 3.9-.6 1-.2 1.4 1.9 1.4 2 0 3-.6 2-1.3-.2 0-.3-1-.3-2.3 0-3.8-1.6-5-4-3.3-.7.4-.7.4-.7-.1-.1-.7-1.2-.8-2.8-.3m-86.3.3c-1.2.6-1.8 1.2-1.7 2 .1.9 1 .8 2-.3.8-1 1.5-.8 1.5.4 0 .6-.2.6-1.3 1-2.1.4-3.1 2.1-2 3.5.7.9 1.8 1 3 .5.8-.5 1-.5 1.6-.2.6.3.8.3 1.5 0 1.1-.4 1.9-2 1-2-.4 0-.5-.3-.7-2.4-.3-2.7-2.3-3.7-4.9-2.5m-14.3.2c.7.6.6 2-.2 2.6-.8.5-1.2 0-1.2-1.8 0-1.3.5-1.6 1.4-.8m90 0c.4 1 0 2.2-.6 2.2-.8 0-1.2-1.7-.6-2.3.4-.4 1-.4 1.2 0m21.7 0c-3.2 1.2-3.5 5.5-.6 7 1.6.9 4.6.1 4.9-1.1 0-.7-.3-.9-1.4-.6-1.2.3-2.3-.1-2.3-1 0-.4 0-.5 1.8-.3 2 .2 2.4 0 2.4-1.3 0-2-2.6-3.5-4.8-2.7m-102.6.5-.6.6-.4-.5c-.4-.6-1.3-.5-2.8.3-1.2.6-1.3.8-.6 1.6.8.8.9 2.8.2 4-.6 1 0 1.4 2.3 1.3 2.8-.2 3.4-.7 2.1-1.8-1.2-1-1.3-3.7 0-3 1.2 1 2.8-.2 2.5-1.7-.3-1.4-1.7-1.8-2.7-.8m109.9.4c-2.6 1.3-2.7 4.8-.4 6.6 1.6 1.1 4.9.4 5-1.2.1-.6 0-.6-.7-.4-1.3.3-2 .2-2.5-.4-.8-.9-.6-1 1.5-.8 2 .1 2 .1 2.3-.5 1-2.3-2.7-4.7-5.2-3.3m-5.4.5c.6.6.3 1-.5 1-.7 0-.8 0-.8-.4 0-.7.8-1.1 1.3-.6m12.5 0c-1.1.3-1.4.7-1 1.5.7.8.4 3.3-.3 3.8-1.1 1 0 1.9 2.6 2 2.2 0 2.7-.5 1.7-1.6-.5-.6-.6-.7-.5-1.8.2-1.5.3-1.6 1-1 1.1 1.1 2.7.3 2.7-1.3 0-1.5-1.2-2.1-2.4-1.2-.7.6-.8.6-1 0 0-.7-1.4-.9-2.8-.5m-4.6 1.3c.1.6 0 .6-.5.5-.8 0-1-.8-.5-1.1.5-.4 1-.1 1 .6m-134.7-.4c-.4 0-1 .4-1.4.8l-.6.6-.3-.5c-.3-.6-1-.6-2.4.2-1.4.7-1.7 1-1 1.7.6.8 1 4 .5 4-.6 0-.1 1 .5 1.2 1.9.5 4-.5 3.3-1.6-.6-1.3-.7-3.7-.1-3.9 1-.3 1.3.4 1.3 2.8v2l1 .2c2.2.1 3.6-.8 2.8-1.8a7 7 0 0 1-.7-2.1c-.4-2.8-1.2-3.8-3-3.6m147.3 0c-1.3.4-1.6.9-.9 1.5.7.5.3 3.4-.5 4-1 .8.4 1.7 2.7 1.8 1.7 0 2.3-.6 1.5-1.4-.3-.4-.3-.7-.1-2.7.4-3.5.4-3.4-.8-3.3l-1.9.1m-82 .9c0 .5 0 .7-.4.7-.6 0-.8-.7-.4-1.2.5-.5.8-.3.8.5m87.9-.3c-1.7.4-2.4 1.2-1.5 1.7.5.3 0 3.5-.6 4-1 .7.3 1.5 2.4 1.4h1.5v-2c0-2.7.7-3.8 1.6-2.7.4.5.1 2.9-.4 3.8-.6 1-.2 1.4 2 1.6 1.8.1 2.4-.3 1.9-1.2-.2-.3-.3-1-.2-2.7l.2-2.3-.7-.7c-.9-.9-2.2-1-3.1-.3-.8.6-1 .6-1 0 0-.4 0-.7-.3-.8-.4-.1-.4-.1-1.8.2m22 0c-.3.5-.3.5.3 1l.7.5-.3 2.4c-.4 3.3-.6 4.1-1.3 4.6-1.3.8-1 1 2.7 1.7l3.7.6c.7.3.8.2 1.3-.5l.7-.8.3.8c.5.9 1.9 1.4 3 1 .6 0 .8 0 1.2.4 1 1.2 3.8.3 3-1-.2-.4-.2-.8 0-2 .4-2 .4-2.7-.1-3.2-1.3-1.5-5.2-1.6-5.9-.2-.6 1 .7 1.5 1.9.7 1-.7 1.4-.5 1.3.5v.8l-1.3-.1c-1 0-1.6 0-2.2.4-.8.4-1 .4-1.2.1-.3-.5-.7-.4-1.4.4-.5.7-1.7 1-2.4.6s.2-6.5 1-7c1.1-.6 1-1.2-.7-1.7-1.6-.4-3.7-.4-4.2 0m-187 1c-1.6.5-2.6 1.8-2 2.5.4.6 1 .4 1.8-.5.8-1.3 1.6-1.2 1.6.2 0 .6 0 .7-1 1-2 .4-3 2-2.2 3.4.5 1 2.1 1.2 3.4.5.6-.4.9-.5 1.2-.3 1.6.9 4-1 2.6-2-.4-.3-.5-.9-.7-2.2-.5-2.8-2-3.6-4.7-2.6m41.2 1c0 .4-.2.6-.4.7-.5 0-.7-.6-.4-1.2.3-.6.8-.4.8.4m133.1-.4c-1.2.7-1.6 1.5-1.1 2.8.4 1 .3 1-.2 1.4-.7.4-.8.8-.4 1.5.3.6.2.7-.2 1.1-2 2 3.8 4.2 6.5 2.6 2.5-1.6 1.6-4-1.6-4-1.5 0-2.5-.4-2.2-.9h1.2c2 .2 3.8-.7 3.8-2 0-.3.2-.7.5-1 1-1 .8-2.2-.5-1.6-.6.4-.8.4-1.8 0a6 6 0 0 0-4 .1m-179.3 0c-1 .4-1.1.7-.8 1.4.3.5 0 2-.4 2-.5 0-1-1-1-1.9l.1-.9h-1c-2.4-.2-4.3 1-3.2 1.9.7.5.6 1.5 0 1.5-.4 0-1-1.2-1-1.8-.1-.8-1-1-2.6-.7-2 .3-3.2 1.6-1.8 2 .4 0 1.4 1 2.5 2.4 2.7 3.4 3 3.4 3.8 1 .7-1.9 1-2 2-.9 2 2.7 2.5 2.5 3.7-1.5.7-2 1-2.8 1.5-3.3 1.2-1 .1-1.7-1.8-1.1m182.3 1.3c.5 1.2-.5 2.6-1.1 1.8-.3-.4-.4-1.8-.1-2.2.2-.5 1-.2 1.2.4m-209-.2c-.9.3-1 .8-1 2.4 0 2.1-1.3 7-2 7.4-1.4 1 .8 1.7 2.9.9 1-.4 1.2-1 .4-1.3-1.3-.3-.6-1.1 1.3-1.5 1.7-.3 2.2 0 1.3 1-1 1.2 2.6 1.5 4.8.4.8-.4.9-1.4.2-1.5-.3 0-1-.8-1.8-2-2.4-3.6-4.2-5.8-4.9-5.8h-1.1m11.1 1.2c-3.4.3-4 3.6-.7 5 .9.4 1.2.6 1 1-.1.4-.5.4-1.4-.3-1.2-1-1.8-.7-1.4.6.4 1 1 1.4 1.9 1.4 4.6 0 6-3.2 2.1-5-.8-.3-1.5-.7-1.5-.9 0-.4.7-.4 1.5 0 1 .6 1.6.4 1.6-.4 0-.6-1-1.7-1.4-1.6-.2 0-1 0-1.7.2m135.8 0c.2.4-.4 1-1.2 1-.7 0-1.8-.6-1.8-1 0-.3 2.8-.3 3 0m89.5.4c-.7.3-.9 1-.3 1.6.4.4 0 4-.8 6-.4 1.2-.4 1.3.4 1.3a4 4 0 0 1 1.6.7c2.3 1.5 5.4.5 6.4-2 .6-1.6 0-3.7-1-4.2s-1.3-.5-2.2-.3c-1 .3-1 .4-.7-1.5l.2-1.7H321m-203 1.5c.2.6-.2 1.1-.7 1-.4-.3-.5-1.3 0-1.5.5-.2.6-.2.7.5m-31.6 2.9-1.1.3-.8.2.2-1c.2-1.5.3-1.6 1.2-.6.6.7.8 1 .5 1m228.8.5-.4.8c-.5.7-1.2 0-.8-.8.3-.6 1.2-.6 1.2 0m-22.8 0c.8 0 1.2.6.6 1-.4.3-2 0-2.4-.5-.5-.6-.4-.8.4-.6l1.4.1m32.5.6c.8.8 0 3.7-.9 3.6-.5-.1-.5-.2-.5-1.7 0-2 .5-2.7 1.4-1.9"/><path fill="#f6f9f9" d="M140.7 102c-3.3 1-5 4.5-3.8 7.4.4 1 .4 1 .4-1 0-4.3 4.6-6.9 8.3-4.6l1.2.8-.5-.7c-1-1.3-4-2.4-5.6-1.9m120.1.6a5.6 5.6 0 0 0-2.8 7.6c.3.7.7 1.2.7 1v-.5c-2.3-4.2 3-9.4 7.4-7.1.7.4.7.4.4 0-1-1.2-4-1.7-5.7-1m-28.7 5.4c-3 1-4.6 4.5-3.3 7.3.5 1.2.7 1.2.4 0-.9-3.9 3.3-7.8 7-6.4l1.3.5.5.1-.5-.4c-1.4-1.1-3.8-1.7-5.4-1.1m-62.2 2.4c-2 .6-3.6 3-3.5 5.3 0 2 .3 2.6.4.9a5.5 5.5 0 0 1 9.2-3.8c1 1 1 .5 0-.7a5.8 5.8 0 0 0-6-1.7m-34 8.1c0 .2 0 .3-.2.3l-.3 1.1-.3 1.5a22.3 22.3 0 0 0 41.7 13.7c.2-.4.3-.8.2-1 0-.1 0-.2.1 0 .2 0 .5-.4.8-1.2.5-1.5.6-1.7.1-1.3-.2.2-.3.2-.5-.2 0-.3-.3-.5-.4-.4-.2 0-.5 0-.6-.2-.2-.2-.6-.3-1-.3-.7 0-1.6 1.8-1.1 2.4.2.3.2.4 0 .4l-.2-.3c0-.4-.4 0-.9.9-3.6 7-13.9 10.8-22 8.1-8.9-3-14.9-13.6-12.3-22 .2-.9-.7-1.5-2-1.3-.4.1-.4.1-.1-.1.3-.2.2-.3-.3-.2h-.7v.1m138 0c0 .3 0 .3-.4 0-.8-.6-3 .6-2.7 1.6.9 2.2.5 7.7-.7 10.8-.2.7-.4 1.3-.3 1.5.1.1 0 .2 0 0-.2 0-.5.2-.7.7a18.6 18.6 0 0 1-21.6 9.1c-5.5-1.6-10.8-6.2-12.2-10.7-.4-1.2-1.5-1.6-2-.7-.1.2-.3.3-.5.2 0 0-.2 0-.2.3s0 .4-.2.1c-.1-.2-.2-.2-.4 0 0 .2-.2.2-.3 0-.9-1.2.4 2 1.8 4.5 2.7 5 8.6 9.1 14.9 10.4 3 .7 11.4 0 10.3-.7-.2-.2-.1-.2.4-.1 1 .2 7.7-3.3 7.8-4.2h-.3s-.1 0 0-.2c0-.4.1-.4.3-.1.5.7 5.2-5 5.2-6.3l.2-.7c.2 0 .2 0 0 .2 0 .2 0 .2.1.1.4-.2 1.5-3.2 1.4-3.5-.1-.2 0-.3 0-.2.4.2.8-2.5 1-6 0-2.4 0-3.5-.2-3.5s-.3.2-.3.4l-.1.3c-.1-.1 0-.4.1-.7.2-.5.2-.8 0-1.8-.2-.7-.4-1.1-.4-.9m-15.1 8.4c-1.4 1.4.2 3.5 2.1 2.8.6-.2 1.1-1.4 1-2-.4-1.3-2.2-1.8-3.1-.8m12.9 3.4-.1-.4v-.4c.2.2.2.5 0 .8m-112 .8c-1 1-.7 2.3.5 2.8 1.9 1 3.5-1.4 2-2.9-.7-.6-1.8-.6-2.5.1m113.5 1.3-.4.8-.3.3c-.1.4-.2.3 0-.1l.1-1.2c0-.5 0-.5.2-.1.2.6.5-.6.3-1.2 0-.4 0-.4.2 0 .2.2.1.6-.1 1.5m-40.6.6c-.2.5-.3.4-.4-.2 0-.5 0-.6.2-.4.2.2.2.4.2.6m-57-.1-.3.3c-.3.1-.5-.1-.2-.4.2-.2.6-.2.6 0m58.9 3.3c0-.1.2.2.2.6 0 .8-.4.6-.8-.5-.4-1-.4-1.2 0-.6.2.3.5.5.6.5m36.5 0 .3-.3-.4.8c-.4.5-.4.5-.4-.4v-.3c.2.6.3.6.5.1m-95.7 1c-.3.3-.4.3-.4.1 0-.1 0-.3.2-.3s.2-.1.1-.4c-.1-.3 0-.3.2 0 .2.2.2.3-.1.6m93-.4c0 .3 0 .3-.3 0-.2-.2-.3-.3-.3 0l-.4.3c-.1 0-.1-.2 0-.4.4-.4.8-.4 1 .1m1.1 2a6 6 0 0 1-.8 1c-.4.4-.5.5-.4.2l.3-.5c-.1-.5 0-.8.4-.7.2.1.3 0 .3-.2l.2-.4c.2 0 .2.2 0 .5m-5.5 4.8c-.6.5-.8.5-1 .3-.3-.2-.3-.2 0-.1.2 0 .5 0 .7-.4l.7-.4c.1 0 0 .3-.4.6m-6 2.4c-.2.3-.7.3-.9 0l.5-.1c.3 0 .5 0 .4.1m-114.2 104c-3 .8-5 4.5-3.7 7.2.3.7.3.7.4-.7 0-4.9 5.5-7.4 9-4.2 1 1 .8.2-.3-.9a5.5 5.5 0 0 0-5.4-1.5m119.1.2c-2.8.8-4.5 5-3.1 7.6.7 1.4 1 1.5.5.2-1.3-4.2 3-8.6 7-7 1.2.5 1.3.4.2-.3-.8-.5-3.5-.8-4.6-.5m-90.4 5.5c-2.6 1-4.1 4.1-3.4 7 .4 1.3.7 1.2.5-.3a5.4 5.4 0 0 1 8.4-5c1.3.8 1.5.7.4-.3a6 6 0 0 0-6-1.4m61.7 0c-3.4 1.2-5 4.7-3.3 7.6.4.8.5.9.4.3-1.2-4.6 3.1-8.7 7.2-6.9 1.5.7 1.7.5.3-.2-1.8-1.1-3.2-1.3-4.6-.8m-30.4 5.2a8 8 0 0 0-5.8 6.5c-.1 1 .2 1 .4.1 1.3-6.4 11.4-6.5 13.7-.2.4 1.1.4 1.2.5.5 0-4.1-4.7-7.8-8.8-6.9M94.6 287.8v7.3l.9.1 1.8.2c1.3 0 1.4-.4-1 5.9l-4.4 11.6c-3 8-2.4 7.2-5 7.4l-2 .1v7.7l-.1 7.7 1.1-.2 18.4-2.1 4-.4V320l-1.8.1h-1.9l.7-1.8.7-1.9 1.8-.1 6-.2h4.4l.5 1.5c.7 2 .9 1.8-1.6 2h-2v12.8h.6a733.6 733.6 0 0 1 29.4-2.4l.5-.1v-12.4h-4.4L140 315c-1.8-3.7-8-17.5-8-17.8h1.8l1.8.1v-12.8l-.8-.1-9.2-.9a1369.7 1369.7 0 0 1-30.8-3c-.1 0-.2 3.3-.2 7.3M301 282c-5.9.7-13.3 1.3-21.2 2l-8.1.6-.1 6.3v6.4h4.8v20.5h-4.9v12.5l.6.1 3.9.4c11.4.9 40.6 3.8 48.1 4.8l1 .2v-24l-5.4-.2-7.6-.1H310v8l-3.3-.2a64 64 0 0 1-5.3-.3l-2-.1V296l2.7-.1 2.5-.2v-7c0-6.7 0-7.1-.4-7.1l-3.2.3m-41.3 3.3c-11.2.6-31.4 1.3-43.8 1.5h-3v11.7h2l2.1-.1v18.2h-3.8c-.7 0-.4 11.5.2 11.5.3 0 4.2.2 8.7.2a1198.4 1198.4 0 0 1 44.4 1.8l.1-8v-8l-4.7-.1-8.2-.2h-3.6v3.3l-2.3-.1-4.9-.2h-2.6v-4.2H251V302h-5.2l-5.3.2v-4h7.6l2.2-.2v3.3h3.6l8.2-.1 4.7-.2v-16h-.8l-6.1.4m-112.3 6v6.3l2.6.1 2.6.1v19.4h-2.6l-2.5.2v6.3l-.1 6.2 1.5-.1c3.4-.3 14.8-.9 23.3-1.1 8.7-.3 9-.3 9-.8.1-.3.2-2.9.1-5.8v-5.4h-2.8l-2.7-.1v-3l2.3-.1 6.5-.2c7 0 12.6-.6 16-2 11.2-4.1 12.3-15.8 2-21-4.9-2.6-9.5-3.3-24.6-3.7a954.7 954.7 0 0 1-29.2-1.4l-1.4-.1v6.3m36 6.6c1.4.3 2.2 1.3 2.1 2.4-.1 1.7-1.7 2.2-6.7 2.2h-3v-5.2l3.3.2c1.8 0 3.8.3 4.3.4m-69.7 5.6 1.3 4-3 .1c-1.7 0-3 0-3-.2l1.6-4.1c.8-2.2 1.5-4 1.6-3.9l1.5 4"/></g></svg>